# xmcd
#
# Track frame offsets: 
#        150
#        21350
#        40287
#        68467
#        91195
#        112405
#        142452
#
# Disc length: 4440 seconds
#
# Revision: 2
# Processed by: cddbd v1.5.2PL0 Copyright (c) Steve Scherf et al.
# Submitted via: ExactAudioCopy v1.0b3
#
DISCID=65115607
DTITLE=ayumi hamasaki - Bold and Delicious／Pride
DYEAR=2005
DGENRE=JPop
TTITLE0=Bold and Delicious "Original Mix"
TTITLE1=Pride "Original Mix"
TTITLE2=HEAVEN "Houce Mix"
TTITLE3=Will "Wall5 Remix"
TTITLE4=Bold and Delicious "Original Mix -Instrumental-"
TTITLE5=Pride "Original Mix -Instrumental-"
TTITLE6=data
EXTD=
EXTT0=
EXTT1=
EXTT2=
EXTT3=
EXTT4=
EXTT5=
EXTT6=
PLAYORDER=
